<svg width="67" height="20" viewBox="0 0 67 20" fill="none" xmlns="http://www.w3.org/2000/svg">
<g opacity="0.5" clip-path="url(#clip0_4_51)">
<path d="M10.2236 0.221069C4.95394 0.221069 0.636968 4.18203 0.226746 9.2158L5.6034 11.3829C6.05897 11.0791 6.60934 10.9012 7.20143 10.9012C7.25449 10.9012 7.30733 10.9034 7.35971 10.9058L9.75075 7.52734C9.75075 7.5112 9.75075 7.4955 9.75075 7.47959C9.75075 5.44605 11.4476 3.79164 13.5339 3.79164C15.6199 3.79164 17.3168 5.44605 17.3168 7.47959C17.3168 9.51312 15.6199 11.1678 13.5339 11.1678C13.5051 11.1678 13.4765 11.1678 13.448 11.1655L10.0378 13.5375C10.0401 13.5806 10.0412 13.6246 10.0412 13.6684C10.0412 15.195 8.76748 16.4365 7.20166 16.4365C5.82722 16.4365 4.67796 15.4802 4.41763 14.2138L0.572339 12.665C1.76287 16.7697 5.63129 19.7789 10.2236 19.7789C15.7639 19.7789 20.2551 15.4006 20.2551 10.0003C20.2551 4.59917 15.7637 0.221069 10.2236 0.221069Z" fill="#A1A4AB"/>
<path d="M6.51302 15.0591L5.28076 14.5628C5.49914 15.006 5.87693 15.3772 6.37854 15.581C7.46294 16.0214 8.71311 15.5198 9.16506 14.4618C9.38389 13.9502 9.38525 13.3854 9.16823 12.8726C8.95167 12.3595 8.54304 11.9594 8.01762 11.7458C7.49628 11.5343 6.93775 11.542 6.44703 11.7226L7.71987 12.2357C8.51968 12.5606 8.89793 13.4559 8.56458 14.2356C8.23191 15.0155 7.31282 15.3843 6.51302 15.0591Z" fill="#A1A4AB"/>
<path d="M16.0542 7.47959C16.0542 6.12471 14.9236 5.02228 13.5335 5.02228C12.1436 5.02228 11.0128 6.12471 11.0128 7.47959C11.0128 8.83469 12.1436 9.93667 13.5335 9.93667C14.9236 9.93667 16.0542 8.83447 16.0542 7.47959ZM11.6441 7.47539C11.6441 6.45586 12.492 5.62953 13.5378 5.62953C14.5837 5.62953 15.4315 6.45586 15.4315 7.47539C15.4315 8.49492 14.5837 9.32124 13.5378 9.32124C12.492 9.32124 11.6441 8.4947 11.6441 7.47539Z" fill="#A1A4AB"/>
<path d="M30.9683 6.91191L30.2961 8.06363C29.7784 7.71104 29.0768 7.49883 28.4643 7.49883C27.7643 7.49883 27.3311 7.78134 27.3311 8.28735C27.3311 8.90212 28.1006 9.04514 29.2442 9.44526C30.4735 9.86904 31.1801 10.3671 31.1801 11.4646C31.1801 12.9663 29.9687 13.8097 28.2276 13.8097C27.379 13.8097 26.3554 13.5961 25.5685 13.1295L26.0588 11.8526C26.698 12.1818 27.4627 12.377 28.1443 12.377C29.0632 12.377 29.4999 12.0465 29.4999 11.5579C29.4999 10.9989 28.8339 10.8309 27.7588 10.4838C26.5336 10.085 25.6846 9.56176 25.6846 8.34703C25.6846 6.97712 26.81 6.19037 28.4294 6.19037C29.558 6.19037 30.4651 6.53898 30.9683 6.91191Z" fill="#A1A4AB"/>
<path d="M34.6399 13.6834V7.63986H32.3427V6.31659H38.5128V7.63986H36.2225V13.6834H34.6399Z" fill="#A1A4AB"/>
<path d="M44.8777 9.29582V10.6191H41.849V12.348H45.363V13.6834H40.2668V6.31659H45.363V7.63588H41.849V9.29582H44.8777Z" fill="#A1A4AB"/>
<path d="M48.8954 12.2531L48.3951 13.6836H46.7361L49.5695 6.31677H51.1626L54.0761 13.6834H52.361L51.8499 12.2529L48.8954 12.2531ZM50.3571 8.07398L49.3251 11.0236H51.4104L50.3571 8.07398Z" fill="#A1A4AB"/>
<path d="M59.2371 13.4688L57.2025 9.20253V13.6834H55.687V6.31659H57.1991L59.7389 11.6344L62.1884 6.31659H63.7137V13.6834H62.1984V9.16407L60.1303 13.4688H59.2371Z" fill="#A1A4AB"/>
<path d="M66.7732 7.24591C66.7732 7.87902 66.2866 8.27361 65.728 8.27361C65.1675 8.27361 64.6797 7.87902 64.6797 7.24591C64.6797 6.61301 65.1675 6.22107 65.728 6.22107C66.2868 6.22107 66.7732 6.61301 66.7732 7.24591ZM64.8554 7.24591C64.8554 7.77557 65.2468 8.10826 65.728 8.10826C66.2074 8.10826 66.5972 7.77557 66.5972 7.24591C66.5972 6.7147 66.2074 6.38709 65.728 6.38709C65.2482 6.38709 64.8554 6.71868 64.8554 7.24591ZM65.7425 6.72221C66.0135 6.72221 66.1047 6.86192 66.1047 7.01291C66.1047 7.15129 66.0206 7.24414 65.9181 7.29144L66.1609 7.73511H65.9621L65.7573 7.34185H65.5462V7.73511H65.3806V6.72221H65.7425ZM65.5478 7.19351H65.7323C65.8518 7.19351 65.9224 7.12034 65.9224 7.02838C65.9224 6.93554 65.8718 6.87585 65.7319 6.87585H65.5475V7.19351H65.5478Z" fill="#A1A4AB"/>
</g>
<defs>
<clipPath id="clip0_4_51">
<rect width="67" height="20" fill="white"/>
</clipPath>
</defs>
</svg>
